<svg width="200" height="120" viewBox="0 0 200 120" fill="none" xmlns="http://www.w3.org/2000/svg">
<path fill-rule="evenodd" clip-rule="evenodd" d="M29.2962 0.779431C30.6923 2.75439 30.1623 4.76736 29.6259 6.80453C29.1569 8.58549 28.6831 10.3849 29.4871 12.1937C30.2075 13.8143 32.4021 14.8991 34.127 15.2119C32.1686 13.0451 31.3298 9.95366 32.861 7.46548C32.3645 8.79348 32.8846 10.6292 33.3908 11.8791C34.2576 14.0174 35.9253 15.6047 38.0145 16.559C37.8023 14.8412 38.1677 13.6838 38.5213 12.5635C38.7521 11.8323 38.9779 11.1169 39.0349 10.272C39.4602 3.97553 33.3475 2.07663 30.48 1.18584C29.9584 1.02382 29.5442 0.895147 29.2962 0.779431ZM49.936 23.0736C52.4643 23.9615 54.8539 24.8515 54.6443 28.4959C54.1963 31.3537 51.6177 33.2751 48.7916 33.2247C43.9331 33.0254 41.2581 27.7523 42.7471 23.5628C44.9299 18.4875 51.5247 16.4694 56.0661 19.318C57.2116 19.8962 57.691 19.9274 58.1674 19.9585L58.2026 19.9608C65.1638 13.5465 64.7074 5.049 64.5146 1.45779C64.4783 0.783426 64.4514 0.282067 64.4846 0C61.6421 3.65041 57.6427 3.82387 53.5957 3.9994C50.0585 4.15281 46.4849 4.3078 43.6154 6.78711C41.043 9.0095 40.2894 13.6057 40.6867 16.9141C43.5638 12.138 48.7698 8.87012 54.2078 10.2466C51.4871 10.0943 48.4061 12.0731 46.3952 13.6994C37.6713 20.7452 37.9526 34.7616 49.0384 35.1965C58.0285 35.0772 57.9899 22.9555 49.936 23.0736ZM46.2351 77.6934C42.5095 83.6615 35.1104 86.49 26.476 86.3794C23.778 86.3447 21.6847 85.6036 19.783 84.4889C17.8812 83.3738 16.9301 81.6286 16.9301 79.2532V78.9989V78.8168C20.5876 78.8657 23.7454 78.7081 26.403 78.3443C29.0609 77.9809 31.2431 77.5809 32.9499 77.1446C33.5839 76.9508 34.169 76.7811 34.7056 76.6355C35.2419 76.49 35.7051 76.3447 36.0953 76.1992C38.7775 75.2297 40.7647 74.1511 42.0572 72.9634C43.3496 71.7757 44.2394 70.5518 44.7269 69.2912C44.8733 68.8066 44.9831 68.3217 45.0561 67.8371C45.1292 67.3522 45.1659 66.8917 45.1659 66.4554C45.1659 64.1285 44.1296 62.4197 42.0572 61.3291C39.9844 60.2384 37.7045 59.693 35.2177 59.693C32.9254 59.693 30.8162 59.9232 28.8902 60.3837C26.9638 60.8442 25.2937 61.3652 23.8794 61.9472C22.9041 62.3351 22.0749 62.7106 21.3922 63.0743C20.7094 63.4378 20.1974 63.7165 19.856 63.9103C18.7831 64.5408 17.8324 65.183 17.0032 65.8375C16.1743 66.4918 15.4182 67.134 14.7355 67.7642C12.6876 69.8973 11.4194 71.9212 10.9319 73.8361C10.4441 75.7507 10.2004 77.2172 10.2004 78.2352C10.2004 81.411 11.0274 83.9867 13.1278 85.4952C19.2336 89.8797 26.3943 89.3126 26.3943 89.3126C41.3782 89.4683 51.6171 79.7106 51.6171 65.1104C51.6171 48.9688 42.1624 42.2966 34.3464 36.781C31.396 34.699 28.6792 32.7817 26.7925 30.5821C26.7935 30.7588 26.8 30.9325 26.8118 31.1044C26.8069 31.0914 26.8018 31.0786 26.7967 31.0658C26.7899 31.0487 26.7831 31.0316 26.7767 31.0141C26.7848 30.8713 26.7913 30.7282 26.7925 30.5821C25.1584 28.6767 24.1446 26.5594 24.1446 23.9396C24.1446 25.7358 23.6835 27.2978 22.8858 28.7182C24.232 32.6326 28.1453 35.3941 32.5881 38.5292C40.4042 44.0447 49.8592 50.7167 49.8592 66.858C49.8592 71.4339 48.0321 74.8143 46.2351 77.6934ZM29.7067 48.5435C30.3795 48.0636 30.9555 47.6527 30.9555 46.9492C30.9555 47.6381 31.5283 48.0422 32.2005 48.5165C33.1545 49.1896 34.3086 50.0038 34.3086 51.9738C34.3086 55.3319 30.9676 55.2948 30.9676 55.2948C30.9676 55.2948 27.627 55.3072 27.627 51.9738C27.627 50.0272 28.7622 49.2173 29.7067 48.5435ZM13.3692 53.6038C14.0931 53.0874 14.7128 52.6453 14.7128 51.8885C14.7128 52.6298 15.3292 53.0646 16.0524 53.5749C17.0788 54.2991 18.3205 55.1752 18.3205 57.2947C18.3205 60.9079 14.7261 60.868 14.7261 60.868C14.7261 60.868 11.1315 60.881 11.1315 57.2947C11.1315 55.2003 12.353 54.3288 13.3692 53.6038ZM14.614 31.8553C17.7806 29.5951 20.6855 27.5218 22.5842 25.0735C21.3322 29.2303 17.3154 32.097 12.7559 35.3509C8.33985 38.5024 3.41483 42.0173 0 47.4192C3.27474 39.9487 9.31135 35.6401 14.614 31.8553ZM36.904 20.8008C36.904 19.7559 34.3841 19.2336 31.8643 19.2336C29.3447 19.2336 26.8249 19.7559 26.8249 20.8008C26.8249 20.9211 26.8286 23.1289 26.8326 23.4408C26.8326 29.086 31.5263 32.3978 37.0335 36.2837C44.85 41.799 54.3054 48.4708 54.3054 64.6119C54.3054 92.1265 26.9324 91.8224 26.9324 91.8224C26.9324 91.8224 15.4838 91.8616 7.39448 84.5031V101.128C7.39448 102.083 6.95471 102.559 6.51789 103.031C6.08687 103.496 5.65871 103.959 5.65871 104.876L5.62203 104.876V107.859C5.62203 108.112 5.63477 108.362 5.65281 108.61C5.65623 108.658 5.65965 108.707 5.664 108.755C5.68545 109.004 5.7153 109.252 5.75478 109.497L5.75913 109.521C5.80111 109.777 5.85365 110.03 5.91396 110.279C5.9155 110.284 5.91666 110.289 5.9178 110.294C5.91875 110.299 5.91968 110.303 5.9208 110.307C5.98423 110.563 6.05667 110.816 6.13906 111.066L6.13999 111.068C7.50702 115.203 11.434 118.211 16.0357 118.211H31.8643H47.6932C52.2948 118.211 56.2218 115.203 57.5889 111.068L57.5895 111.066C57.6722 110.816 57.7446 110.563 57.808 110.307C57.8105 110.298 57.8121 110.288 57.8149 110.279C57.8752 110.03 57.9277 109.777 57.9697 109.521L57.9741 109.497C58.0136 109.252 58.0434 109.004 58.0649 108.755C58.067 108.731 58.0689 108.707 58.0707 108.684L58.076 108.61C58.0941 108.362 58.1068 108.112 58.1068 107.859V104.876L58.0705 104.876C58.0705 103.959 57.6421 103.496 57.211 103.031C56.774 102.559 56.3341 102.083 56.3341 101.128V75.1663C56.9033 75.0829 57.3436 74.5924 57.3436 74.0046V70.9159C57.3436 70.3281 56.9033 69.8376 56.3341 69.7542V56.167C56.3341 55.2699 56.7621 54.8177 57.1929 54.3625C57.4351 54.1066 57.6781 53.8498 57.8466 53.5125C57.8786 53.4479 57.9085 53.3796 57.9343 53.3095L57.9455 53.2761C57.9672 53.2131 57.9884 53.1494 58.0045 53.0808C58.0094 53.06 58.0133 53.0379 58.0172 53.0159C58.0195 53.0025 58.0219 52.9892 58.0244 52.976C58.0338 52.9238 58.0453 52.8728 58.0518 52.8169C58.0633 52.7207 58.0705 52.62 58.0705 52.5118L58.1068 52.5127V49.4754C58.1068 49.1771 58.0897 48.8907 58.0633 48.6097C58.0617 48.5881 58.0602 48.5652 58.0577 48.5436C57.5051 43.0517 52.0529 40.8594 46.8503 38.7674C41.8669 36.7636 37.1126 34.8519 37.1126 30.2208C37.1126 28.8184 37.0726 27.8505 37.0276 26.7623C36.9699 25.365 36.904 23.7694 36.904 20.8008ZM18.0273 75.9083H17.0766C17.1251 75.472 17.2106 75.048 17.3324 74.636C17.4543 74.224 17.6129 73.7997 17.8078 73.3633C18.8807 70.7941 20.8192 68.4432 23.6232 66.3101C26.4272 64.177 29.4386 63.1105 32.6574 63.1105C34.3154 63.1105 35.6075 63.4016 36.5343 63.9832C37.4608 64.5649 38.0459 65.195 38.29 65.8737C38.3385 66.0193 38.3752 66.1525 38.3997 66.2736C38.424 66.3948 38.4361 66.5283 38.4361 66.6735C38.4361 67.2067 38.3385 67.8856 38.1435 68.7096C37.9486 69.5338 37.412 70.3578 36.5343 71.182C35.9489 71.7636 35.1688 72.3212 34.1935 72.8543C33.2182 73.3877 31.9746 73.8967 30.4627 74.3813C30.1702 74.4784 29.8167 74.5874 29.4022 74.7086C28.9875 74.8298 28.4633 74.9389 27.8294 75.0359C26.8541 75.2782 25.6226 75.4843 24.1353 75.654C22.6479 75.8237 20.9047 75.9083 18.9053 75.9083H18.0273ZM72.4458 20.8447L81.8677 37.5079V47.4004C83.0281 47.4004 83.9111 47.1497 84.5165 46.6482C85.1219 46.1466 85.4246 45.4194 85.4246 44.4665V37.5079L94.8466 20.8447C94.67 20.7194 94.3925 20.6191 94.0141 20.5438C93.661 20.4435 93.3204 20.3934 92.9925 20.3934C91.7059 20.3934 90.7726 20.9325 90.1924 22.0108L83.0029 35.8152L82.738 35.6648L83.5327 34.085L77.0621 22.0108C76.5072 20.9325 75.5864 20.3934 74.2999 20.3934C73.9719 20.3934 73.6188 20.4435 73.2404 20.5438C72.8872 20.6191 72.6223 20.7194 72.4458 20.8447ZM97.4439 46.5353C98.7052 47.1121 100.105 47.4004 101.644 47.4004C103.208 47.4004 104.608 47.1121 105.844 46.5353C107.08 45.9586 108.052 45.1812 108.758 44.2032C109.464 43.2002 109.817 42.0843 109.817 40.8556V34.6868C109.817 33.433 109.464 32.292 108.758 31.2639C108.077 30.2358 107.106 29.4208 105.844 28.819C104.608 28.2171 103.208 27.9162 101.644 27.9162C100.08 27.9162 98.68 28.2171 97.4439 28.819C96.2078 29.4208 95.2366 30.2358 94.5303 31.2639C93.8492 32.292 93.5086 33.433 93.5086 34.6868V40.8556C93.5086 42.0843 93.8492 43.2002 94.5303 44.2032C95.2366 45.1812 96.2078 45.9586 97.4439 46.5353ZM105.239 43.5262C104.356 44.2283 103.158 44.5794 101.644 44.5794C100.131 44.5794 98.9196 44.2283 98.0115 43.5262C97.1286 42.799 96.6871 41.8586 96.6871 40.7051V34.7997C96.6871 33.596 97.1412 32.618 98.0494 31.8657C98.9575 31.1134 100.156 30.7373 101.644 30.7373C103.158 30.7373 104.356 31.1134 105.239 31.8657C106.147 32.618 106.601 33.596 106.601 34.7997V40.7051C106.601 41.8586 106.147 42.799 105.239 43.5262ZM126.12 47.4004C128.239 47.4004 129.298 46.4726 129.298 44.617V27.9162C128.188 27.9162 127.356 28.1168 126.801 28.5181C126.271 28.8942 126.006 29.496 126.006 30.3235V40.1785C126.006 40.9559 125.767 41.6831 125.287 42.3601C124.833 43.0121 124.215 43.5387 123.433 43.9399C122.651 44.3161 121.794 44.5041 120.86 44.5041C119.448 44.5041 118.375 44.1405 117.644 43.4133C116.938 42.6861 116.584 41.7207 116.584 40.517V27.9162C115.474 27.9162 114.642 28.1168 114.087 28.5181C113.532 28.8942 113.255 29.496 113.255 30.3235V40.6675C113.255 41.9464 113.532 43.0999 114.087 44.128C114.667 45.1561 115.474 45.9586 116.509 46.5353C117.568 47.1121 118.779 47.4004 120.141 47.4004C121.503 47.4004 122.752 47.0745 123.887 46.4225C125.048 45.7705 126.006 44.9054 126.763 43.8271L126.915 43.9775C126.612 44.4289 126.347 44.7674 126.12 44.9931V47.4004ZM139.277 32.0914C140.21 31.2388 141.383 30.8125 142.796 30.8125C143.956 30.8125 144.89 31.0006 145.596 31.3767C145.823 31.0257 145.937 30.6245 145.937 30.1731C145.937 29.5462 145.697 29.0196 145.218 28.5933C144.738 28.1419 144.045 27.9162 143.137 27.9162C140.715 27.9162 138.697 29.1074 137.082 31.4896L136.931 31.3391C137.082 31.0131 137.36 30.637 137.763 30.2107V27.9162C135.644 27.9162 134.585 28.8441 134.585 30.6997V47.4004C135.695 47.4004 136.515 47.2124 137.044 46.8362C137.599 46.435 137.877 45.8206 137.877 44.9931V35.1382C137.877 33.9345 138.344 32.9189 139.277 32.0914ZM82.0981 88.9659C83.1477 89.6615 84.4677 90.0093 86.058 90.0093L92.4989 66.5805L91.7356 63.7823L92.165 63.64L99.4169 90.0093C101.007 90.0093 102.311 89.6615 103.329 88.9659C104.379 88.2387 105.079 87.2111 105.428 85.8831L112.967 56.6683C112.14 56.194 111.138 55.9569 109.961 55.9569C108.752 55.9569 107.766 56.2414 107.003 56.8106C106.271 57.3481 105.794 58.1227 105.572 59.1345L100.419 81.5199L99.894 81.3776L100.801 77.536L95.6001 58.0911C95.4093 57.4271 95.0594 56.9054 94.5505 56.526C94.0416 56.1466 93.4372 55.9569 92.7375 55.9569C92.0377 55.9569 91.4334 56.1466 90.9245 56.526C90.4474 56.9054 90.1134 57.4271 89.9226 58.0911L83.434 80.9033L83.0046 80.761L83.9588 77.1092L79.9511 59.1345C79.6966 58.1227 79.1877 57.3481 78.4244 56.8106C77.661 56.2414 76.6909 55.9569 75.514 55.9569C74.3054 55.9569 73.3194 56.194 72.556 56.6683L80.0465 85.8831C80.3964 87.2111 81.0802 88.2387 82.0981 88.9659ZM117.388 89.0607C118.756 89.6931 120.251 90.0093 121.873 90.0093C123.718 90.0093 125.229 89.7247 126.406 89.1556C127.614 88.5864 128.744 87.7486 129.793 86.642L129.984 86.8791C129.793 87.132 129.427 87.5273 128.887 88.0648V90.0093C130.795 90.0093 132.195 89.6931 133.085 89.0607C133.976 88.4284 134.421 87.4166 134.421 86.0254V74.1687C134.421 71.4812 133.499 69.3628 131.654 67.8135C129.809 66.2327 127.201 65.4422 123.829 65.4422C122.112 65.4422 120.521 65.6794 119.058 66.1536C117.595 66.6279 116.434 67.2602 115.575 68.0507C114.717 68.8411 114.287 69.7106 114.287 70.6592C114.287 71.2283 114.526 71.7658 115.003 72.2717C115.48 72.7459 116.068 73.0937 116.768 73.315C118.168 71.165 120.347 70.09 123.305 70.09C124.959 70.09 126.247 70.4694 127.169 71.2283C128.091 71.9871 128.553 73.0147 128.553 74.311V75.2595C129.252 75.8287 129.745 76.2555 130.032 76.5401L129.793 76.7772C128.807 75.8603 127.726 75.1805 126.549 74.7379C125.404 74.2636 124.1 74.0265 122.637 74.0265C120.855 74.0265 119.217 74.3584 117.722 75.0224C116.259 75.6548 115.098 76.5875 114.24 77.8206C113.381 79.0221 112.951 80.4449 112.951 82.089C112.951 83.7331 113.349 85.1559 114.144 86.3574C114.971 87.5273 116.053 88.4284 117.388 89.0607ZM127.265 84.7449C126.342 85.3772 125.054 85.6934 123.4 85.6934C121.937 85.6934 120.792 85.3931 119.965 84.7923C119.138 84.16 118.724 83.243 118.724 82.0416C118.724 80.8717 119.138 79.9706 119.965 79.3382C120.824 78.6743 121.985 78.3423 123.448 78.3423C125.038 78.3423 126.294 78.6743 127.217 79.3382C128.171 80.0022 128.648 80.9033 128.648 82.0416C128.648 83.2114 128.187 84.1125 127.265 84.7449ZM143.252 87.7802C144.492 89.2662 146.401 90.0093 148.977 90.0093C150.758 90.0093 152.142 89.6456 153.128 88.9184C154.114 88.1596 154.607 87.3059 154.607 86.3574C154.607 85.9147 154.512 85.4879 154.321 85.0769C154.13 84.6342 153.875 84.2706 153.557 83.9861C152.444 84.5868 151.331 84.8872 150.218 84.8872C149.168 84.8872 148.421 84.65 147.975 84.1758C147.562 83.7015 147.355 82.911 147.355 81.8044V70.2797H149.788C151.124 70.2797 152.094 69.9478 152.699 69.2838C153.303 68.5882 153.605 67.45 153.605 65.8691H147.26V58.3282C145.319 58.3282 143.872 58.6128 142.918 59.1819C141.964 59.7194 141.487 60.6363 141.487 61.9326V65.8691H139.626C138.672 65.8691 137.908 66.2327 137.336 66.9599C136.763 67.6871 136.477 68.7937 136.477 70.2797H141.391V82.0416C141.391 84.3813 142.012 86.2942 143.252 87.7802ZM162.853 88.871C164.475 89.6298 166.272 90.0093 168.244 90.0093C170.025 90.0093 171.663 89.7405 173.158 89.203C174.653 88.6655 175.83 87.9699 176.689 87.1162C177.548 86.2625 177.977 85.3772 177.977 84.4603C177.977 83.5118 177.643 82.7846 176.975 82.2787C176.307 81.7412 175.385 81.4724 174.208 81.4724C173.985 81.4724 173.588 81.5041 173.015 81.5673C173.015 82.6739 172.617 83.575 171.822 84.2706C171.059 84.9662 169.882 85.314 168.292 85.314C166.638 85.314 165.397 84.8872 164.57 84.0335C163.743 83.1798 163.33 82.0732 163.33 80.7136V79.6702H175.83C176.625 79.6702 177.277 79.4331 177.786 78.9588C178.327 78.4846 178.597 77.8996 178.597 77.204V74.5481C178.597 72.7775 178.136 71.2125 177.214 69.8529C176.291 68.4617 175.035 67.3867 173.444 66.6279C171.886 65.8374 170.168 65.4422 168.292 65.4422C166.383 65.4422 164.602 65.8532 162.948 66.6753C161.326 67.4974 160.022 68.6198 159.036 70.0426C158.05 71.4654 157.557 73.0621 157.557 74.8327V81.1405C157.557 82.8162 158.034 84.3339 158.988 85.6934C159.942 87.0214 161.231 88.0806 162.853 88.871ZM173.206 74.5481V75.4492H163.33V74.5481C163.33 73.1886 163.775 72.1136 164.666 71.3231C165.588 70.5011 166.781 70.09 168.244 70.09C169.707 70.09 170.9 70.5011 171.822 71.3231C172.745 72.1452 173.206 73.2202 173.206 74.5481ZM190.871 72.082C192.048 71.0702 193.574 70.5643 195.451 70.5643C196.978 70.5643 198.17 70.8014 199.029 71.2757C199.474 70.7066 199.697 70.011 199.697 69.1889C199.697 68.1139 199.347 67.2286 198.647 66.533C197.948 65.8058 196.914 65.4422 195.546 65.4422C192.525 65.4422 190.012 66.9599 188.008 69.9952L187.722 69.8055C188.008 69.2996 188.39 68.7779 188.867 68.2404V65.4422C186.958 65.4422 185.527 65.8374 184.573 66.6279C183.65 67.4183 183.189 68.5408 183.189 69.9952V90.0093C185.225 90.0093 186.72 89.7247 187.674 89.1556C188.628 88.5864 189.105 87.6695 189.105 86.4048V75.7812C189.105 74.2952 189.694 73.0621 190.871 72.082ZM83.8716 108.569C83.9242 108.529 83.9769 108.474 84.0295 108.402L84.4935 107.774C84.0789 107.362 83.6018 107.044 83.0621 106.822C82.5291 106.593 81.9105 106.478 81.2064 106.478C80.4496 106.478 79.7784 106.606 79.1927 106.861C78.6136 107.116 78.1233 107.473 77.7219 107.931C77.327 108.382 77.0243 108.922 76.8137 109.55C76.6097 110.178 76.5077 110.861 76.5077 111.601C76.5077 112.412 76.6196 113.135 76.8433 113.769C77.0671 114.404 77.3764 114.94 77.7712 115.378C78.1661 115.81 78.63 116.14 79.1631 116.369C79.7027 116.598 80.2851 116.713 80.9102 116.713C81.2722 116.713 81.6275 116.683 81.9763 116.625C82.3251 116.566 82.6574 116.474 82.9733 116.35C83.2958 116.219 83.5952 116.059 83.8716 115.869C84.148 115.679 84.3947 115.45 84.6119 115.182L84.1184 114.544C84.0394 114.433 83.9275 114.377 83.7827 114.377C83.6643 114.377 83.5425 114.43 83.4175 114.534C83.299 114.633 83.1477 114.744 82.9634 114.868C82.7858 114.992 82.5587 115.107 82.2823 115.212C82.0059 115.31 81.6539 115.359 81.2261 115.359C80.7786 115.359 80.3739 115.277 80.012 115.113C79.6566 114.943 79.3506 114.701 79.094 114.387C78.8439 114.067 78.6497 113.674 78.5116 113.21C78.3734 112.739 78.3043 112.202 78.3043 111.601C78.3043 111.025 78.3668 110.505 78.4918 110.04C78.6234 109.576 78.8143 109.18 79.0643 108.853C79.321 108.526 79.6369 108.277 80.012 108.107C80.3871 107.931 80.8214 107.842 81.3149 107.842C81.6835 107.842 81.9928 107.885 82.2428 107.97C82.4995 108.048 82.7134 108.137 82.8845 108.235C83.0621 108.333 83.2102 108.425 83.3287 108.51C83.4471 108.588 83.5557 108.627 83.6544 108.627C83.7465 108.627 83.8189 108.608 83.8716 108.569ZM104.303 115.084C104.191 114.973 104.04 114.917 103.849 114.917H99.1106C98.8605 114.917 98.6006 114.94 98.3307 114.986C98.0609 115.025 97.7944 115.081 97.5312 115.153L101.262 111.365C101.657 110.973 102.029 110.583 102.378 110.197C102.733 109.811 103.046 109.416 103.316 109.01C103.585 108.605 103.799 108.179 103.957 107.734C104.115 107.283 104.194 106.796 104.194 106.272C104.194 105.658 104.086 105.108 103.868 104.624C103.651 104.14 103.352 103.731 102.97 103.397C102.588 103.057 102.138 102.799 101.618 102.622C101.098 102.446 100.539 102.357 99.9397 102.357C99.3343 102.357 98.7717 102.446 98.2518 102.622C97.7319 102.792 97.268 103.044 96.86 103.378C96.4585 103.711 96.1229 104.127 95.8531 104.624C95.5899 105.115 95.4122 105.68 95.3201 106.321L96.2381 106.478C96.4816 106.511 96.6691 106.492 96.8007 106.42C96.9389 106.341 97.0475 106.187 97.1265 105.958C97.1923 105.651 97.3042 105.37 97.4621 105.115C97.62 104.859 97.8142 104.64 98.0445 104.457C98.2814 104.267 98.5512 104.12 98.8539 104.016C99.1566 103.911 99.489 103.859 99.8509 103.859C100.206 103.859 100.539 103.911 100.848 104.016C101.157 104.114 101.424 104.264 101.647 104.467C101.878 104.67 102.059 104.928 102.19 105.242C102.322 105.55 102.388 105.909 102.388 106.321C102.388 106.734 102.329 107.123 102.21 107.489C102.092 107.849 101.924 108.205 101.707 108.559C101.49 108.912 101.226 109.265 100.917 109.618C100.608 109.965 100.265 110.328 99.8904 110.708L95.3595 115.231C95.2477 115.342 95.1654 115.463 95.1128 115.594C95.0601 115.725 95.0338 115.853 95.0338 115.977V116.575H104.471V115.516C104.471 115.339 104.415 115.195 104.303 115.084ZM117.986 112.749C118.256 111.846 118.39 110.78 118.39 109.55C118.39 108.32 118.256 107.254 117.986 106.351C117.722 105.448 117.361 104.702 116.9 104.114C116.439 103.518 115.893 103.077 115.261 102.789C114.636 102.501 113.965 102.357 113.248 102.357C112.524 102.357 111.849 102.501 111.224 102.789C110.605 103.077 110.066 103.518 109.605 104.114C109.144 104.702 108.783 105.448 108.519 106.351C108.256 107.254 108.124 108.32 108.124 109.55C108.124 110.78 108.256 111.846 108.519 112.749C108.783 113.645 109.144 114.387 109.605 114.976C110.066 115.565 110.605 116.003 111.224 116.291C111.849 116.579 112.524 116.723 113.248 116.723C113.965 116.723 114.636 116.579 115.261 116.291C115.893 116.003 116.439 115.565 116.9 114.976C117.361 114.387 117.722 113.645 117.986 112.749ZM116.288 106.851C116.472 107.577 116.564 108.477 116.564 109.55C116.564 110.623 116.472 111.522 116.288 112.248C116.11 112.974 115.867 113.56 115.557 114.005C115.255 114.449 114.903 114.77 114.501 114.966C114.1 115.156 113.682 115.251 113.248 115.251C112.813 115.251 112.395 115.156 111.994 114.966C111.592 114.77 111.24 114.449 110.938 114.005C110.635 113.56 110.392 112.974 110.207 112.248C110.03 111.522 109.941 110.623 109.941 109.55C109.941 108.477 110.03 107.577 110.207 106.851C110.392 106.119 110.635 105.53 110.938 105.085C111.24 104.64 111.592 104.323 111.994 104.133C112.395 103.937 112.813 103.839 113.248 103.839C113.682 103.839 114.1 103.937 114.501 104.133C114.903 104.323 115.255 104.64 115.557 105.085C115.867 105.53 116.11 106.119 116.288 106.851ZM131.412 112.749C131.682 111.846 131.817 110.78 131.817 109.55C131.817 108.32 131.682 107.254 131.412 106.351C131.149 105.448 130.787 104.702 130.326 104.114C129.865 103.518 129.319 103.077 128.688 102.789C128.062 102.501 127.391 102.357 126.674 102.357C125.95 102.357 125.275 102.501 124.65 102.789C124.032 103.077 123.492 103.518 123.031 104.114C122.571 104.702 122.209 105.448 121.946 106.351C121.682 107.254 121.551 108.32 121.551 109.55C121.551 110.78 121.682 111.846 121.946 112.749C122.209 113.645 122.571 114.387 123.031 114.976C123.492 115.565 124.032 116.003 124.65 116.291C125.275 116.579 125.95 116.723 126.674 116.723C127.391 116.723 128.062 116.579 128.688 116.291C129.319 116.003 129.865 115.565 130.326 114.976C130.787 114.387 131.149 113.645 131.412 112.749ZM129.714 106.851C129.898 107.577 129.991 108.477 129.991 109.55C129.991 110.623 129.898 111.522 129.714 112.248C129.536 112.974 129.293 113.56 128.984 114.005C128.681 114.449 128.329 114.77 127.927 114.966C127.526 115.156 127.108 115.251 126.674 115.251C126.239 115.251 125.822 115.156 125.42 114.966C125.019 114.77 124.667 114.449 124.364 114.005C124.061 113.56 123.818 112.974 123.634 112.248C123.456 111.522 123.367 110.623 123.367 109.55C123.367 108.477 123.456 107.577 123.634 106.851C123.818 106.119 124.061 105.53 124.364 105.085C124.667 104.64 125.019 104.323 125.42 104.133C125.822 103.937 126.239 103.839 126.674 103.839C127.108 103.839 127.526 103.937 127.927 104.133C128.329 104.323 128.681 104.64 128.984 105.085C129.293 105.53 129.536 106.119 129.714 106.851ZM137.366 107.842C137.241 107.489 137.178 107.09 137.178 106.645C137.178 106.233 137.247 105.854 137.385 105.507C137.524 105.16 137.721 104.863 137.978 104.614C138.234 104.366 138.54 104.173 138.896 104.035C139.251 103.891 139.646 103.819 140.08 103.819C140.495 103.819 140.873 103.888 141.215 104.025C141.564 104.156 141.864 104.346 142.114 104.594C142.364 104.843 142.558 105.147 142.696 105.507C142.841 105.86 142.913 106.256 142.913 106.694C142.913 107.054 142.848 107.401 142.716 107.734C142.584 108.068 142.393 108.362 142.143 108.618C141.893 108.873 141.584 109.079 141.215 109.236C140.854 109.386 140.436 109.461 139.962 109.461C139.534 109.461 139.146 109.399 138.797 109.275C138.455 109.151 138.162 108.968 137.919 108.726C137.682 108.483 137.497 108.189 137.366 107.842ZM141.689 110.433C141.564 110.603 141.429 110.783 141.285 110.973L136.981 116.575H138.6C138.804 116.575 138.985 116.539 139.143 116.468C139.301 116.389 139.422 116.288 139.508 116.163L142.953 111.218C143.209 110.858 143.44 110.508 143.644 110.168C143.848 109.821 144.019 109.475 144.157 109.128C144.302 108.775 144.41 108.418 144.483 108.058C144.562 107.692 144.601 107.306 144.601 106.9C144.601 106.227 144.493 105.612 144.276 105.056C144.065 104.5 143.762 104.022 143.367 103.623C142.973 103.224 142.499 102.913 141.946 102.691C141.393 102.468 140.778 102.357 140.1 102.357C139.416 102.357 138.787 102.472 138.215 102.701C137.642 102.93 137.149 103.244 136.734 103.643C136.319 104.042 135.997 104.509 135.767 105.046C135.536 105.582 135.421 106.158 135.421 106.773C135.421 107.42 135.526 107.996 135.737 108.5C135.954 108.997 136.244 109.419 136.606 109.766C136.968 110.106 137.386 110.364 137.859 110.541C138.34 110.717 138.846 110.806 139.379 110.806C139.886 110.806 140.367 110.731 140.821 110.58C141.275 110.43 141.683 110.21 142.045 109.923C141.933 110.093 141.814 110.263 141.689 110.433ZM157.995 107.97H162.714V106.635H156.228V116.575H157.995V107.97ZM172.065 106.842C171.479 106.599 170.821 106.478 170.091 106.478C169.354 106.478 168.689 106.599 168.097 106.842C167.511 107.084 167.011 107.427 166.596 107.872C166.182 108.317 165.863 108.856 165.639 109.491C165.422 110.119 165.313 110.822 165.313 111.601C165.313 112.386 165.422 113.092 165.639 113.72C165.863 114.348 166.182 114.884 166.596 115.329C167.011 115.774 167.511 116.118 168.097 116.36C168.689 116.595 169.354 116.713 170.091 116.713C170.821 116.713 171.479 116.595 172.065 116.36C172.651 116.118 173.151 115.774 173.565 115.329C173.98 114.884 174.296 114.348 174.513 113.72C174.737 113.092 174.849 112.386 174.849 111.601C174.849 110.822 174.737 110.119 174.513 109.491C174.296 108.856 173.98 108.317 173.565 107.872C173.151 107.427 172.651 107.084 172.065 106.842ZM172.302 114.368C171.815 115.022 171.078 115.349 170.091 115.349C169.09 115.349 168.343 115.022 167.85 114.368C167.363 113.707 167.119 112.788 167.119 111.61C167.119 111.022 167.179 110.495 167.297 110.031C167.422 109.56 167.606 109.164 167.85 108.843C168.1 108.523 168.409 108.277 168.778 108.107C169.153 107.937 169.591 107.852 170.091 107.852C171.078 107.852 171.815 108.183 172.302 108.843C172.789 109.504 173.032 110.426 173.032 111.61C173.032 112.788 172.789 113.707 172.302 114.368ZM185.575 108.009V115.3H180.62C180.824 115.038 181.018 114.701 181.202 114.289C181.393 113.877 181.564 113.377 181.715 112.788C181.873 112.193 182.012 111.502 182.13 110.717C182.248 109.932 182.341 109.03 182.406 108.009H185.575ZM189.109 119.46V115.251H187.283V106.635H180.955C180.89 107.898 180.801 108.99 180.689 109.913C180.577 110.829 180.445 111.607 180.294 112.248C180.143 112.889 179.972 113.409 179.781 113.808C179.596 114.207 179.399 114.518 179.188 114.741C178.978 114.956 178.757 115.104 178.527 115.182C178.303 115.261 178.076 115.3 177.846 115.3H177.52V120H178.626C178.797 120 178.919 119.948 178.991 119.843C179.07 119.738 179.109 119.624 179.109 119.5V116.575H187.52V120H188.596C188.747 120 188.869 119.951 188.961 119.853C189.06 119.761 189.109 119.63 189.109 119.46ZM196.209 112.297C196.782 112.193 197.473 112.127 198.282 112.101V114.162C198.085 114.371 197.881 114.557 197.67 114.721C197.466 114.884 197.249 115.025 197.019 115.143C196.795 115.261 196.555 115.352 196.298 115.418C196.042 115.476 195.759 115.506 195.449 115.506C195.219 115.506 195.002 115.48 194.798 115.427C194.6 115.369 194.426 115.28 194.275 115.162C194.13 115.038 194.015 114.881 193.929 114.691C193.844 114.502 193.801 114.276 193.801 114.014C193.801 113.74 193.88 113.491 194.038 113.269C194.202 113.046 194.462 112.853 194.818 112.69C195.18 112.526 195.644 112.395 196.209 112.297ZM194.393 106.851C193.755 107.113 193.159 107.509 192.607 108.039L192.922 108.598C192.982 108.69 193.054 108.768 193.14 108.833C193.225 108.892 193.327 108.922 193.446 108.922C193.597 108.922 193.748 108.869 193.9 108.765C194.058 108.654 194.242 108.533 194.452 108.402C194.67 108.264 194.923 108.143 195.213 108.039C195.509 107.927 195.874 107.872 196.308 107.872C196.953 107.872 197.443 108.071 197.779 108.47C198.115 108.863 198.282 109.445 198.282 110.217V110.992C197.144 111.018 196.183 111.123 195.4 111.306C194.617 111.483 193.982 111.712 193.495 111.993C193.008 112.274 192.656 112.598 192.439 112.964C192.222 113.324 192.113 113.7 192.113 114.093C192.113 114.544 192.185 114.937 192.33 115.27C192.481 115.597 192.682 115.869 192.932 116.085C193.189 116.301 193.488 116.464 193.831 116.575C194.173 116.68 194.538 116.732 194.926 116.732C195.308 116.732 195.653 116.696 195.963 116.625C196.279 116.559 196.575 116.464 196.851 116.34C197.128 116.209 197.391 116.052 197.641 115.869C197.891 115.679 198.148 115.463 198.411 115.221L198.608 116.163C198.661 116.327 198.733 116.438 198.825 116.497C198.917 116.549 199.049 116.575 199.22 116.575H200V110.217C200 109.661 199.924 109.151 199.773 108.686C199.622 108.222 199.398 107.826 199.102 107.499C198.806 107.172 198.44 106.917 198.006 106.734C197.572 106.55 197.075 106.459 196.516 106.459C195.739 106.459 195.032 106.59 194.393 106.851Z" fill="#128EC9"/>
</svg>
